<svg xmlns="http://www.w3.org/2000/svg" width="879.04" height="752.105" viewBox="0 0 879.04 752.105">
  <g id="bgLayer" transform="translate(-642.61 -24.5)">
    <path id="Path_1" data-name="Path 1" d="M758.4,136H1440V746.625c-23.44,18.322-144.54-20.387-170.29-125.922s-102.52,83.948-172.42,0,38.98-149.2-37.27-185.886c-32.2-15.491-38.98,87.946-90.659,34.478s0-87.946-38.973-103.436c-63.026-25.051-152.926,81.187-139.793-43.973-17.228,24.318,33.889-37.077,0-107.434S682.148,271.917,698.246,136Z" transform="translate(81 25)" fill="#3f3b3b" stroke="#000" stroke-width="1"/>
    <path id="Path_2" data-name="Path 2" d="M635.651,0h804.5V611c-27.67,18.333-170.6-20.4-201-126s-121,84-203.5,0,46-149.29-44-186c-38-15.5-46,88-107,34.5s0-88-46-103.5c-74.39-25.066-180.5,81.237-165-44-20.333,24.333,40-37.1,0-107.5s-128,57.5-109-78.5Z" transform="translate(81 25)" fill="#4f4b4b" stroke="#2e2b2b" stroke-width="1"/>
  </g>
</svg>
