<svg xmlns="http://www.w3.org/2000/svg" xmlns:xlink="http://www.w3.org/1999/xlink" width="121" height="111.843" viewBox="0 0 121 111.843">
  <defs>
    <linearGradient id="linear-gradient" x1="0.217" y1="0.075" x2="0.775" y2="0.889" gradientUnits="objectBoundingBox">
      <stop offset="0" stop-color="#8c10af"/>
      <stop offset="0.473" stop-color="#e24a94"/>
      <stop offset="1" stop-color="#f70"/>
    </linearGradient>
  </defs>
  <g id="logo" transform="translate(-161 -69)">
    <path id="Path_7" data-name="Path 7" d="M140.5,155.843c33.413,0,60.5-25.037,60.5-55.922S173.913,44,140.5,44,80,69.037,80,99.921,107.087,155.843,140.5,155.843Z" transform="translate(81 25)" fill="url(#linear-gradient)"/>
    <path id="Path_8" data-name="Path 8" d="M117.707,112.753h-11l-1.558-42.662h14.12Zm-5.5,6.68a7.705,7.705,0,0,1,5.363,1.818,6.225,6.225,0,0,1,0,9.26,7.705,7.705,0,0,1-5.363,1.818,7.813,7.813,0,0,1-5.364-1.818,6.274,6.274,0,0,1,0-9.218A7.7,7.7,0,0,1,112.206,119.433Zm46.349,12.219a12.779,12.779,0,0,1-1.33-4.1A16.685,16.685,0,0,1,144.71,132.5a18.642,18.642,0,0,1-12.1-3.89,12.138,12.138,0,0,1-4.767-9.809,12.619,12.619,0,0,1,5.822-11.162q5.868-3.891,16.917-3.932h6.1v-2.622a7.108,7.108,0,0,0-1.788-5.074q-1.741-1.9-5.547-1.9a8.452,8.452,0,0,0-5.272,1.48,4.885,4.885,0,0,0-1.88,4.059H128.939a11.656,11.656,0,0,1,2.659-7.357A17.322,17.322,0,0,1,139.116,87a29.147,29.147,0,0,1,10.911-1.945q9.17,0,14.533,4.27,5.411,4.228,5.41,11.923v19.83q.045,6.511,1.971,9.851v.719Zm-10.957-8.5a12.375,12.375,0,0,0,5.409-1.184,8.447,8.447,0,0,0,3.668-3.256V110.85h-4.951q-9.949,0-10.59,6.342l-.046.719a4.72,4.72,0,0,0,1.742,3.763A7.126,7.126,0,0,0,147.6,123.154Z" transform="translate(81 25)" fill="#fff"/>
  </g>
</svg>
